<svg width="19" height="20" viewBox="0 0 19 20" fill="none" xmlns="http://www.w3.org/2000/svg">
<g clip-path="url(#clip0_401_5339)">
<path d="M16.8119 13.1277C15.6928 13.1277 14.594 12.9362 13.5527 12.5597C13.0425 12.3693 12.4153 12.544 12.1039 12.8939L10.0486 14.5915C7.66514 13.1994 6.19695 11.5934 4.94202 9.00505L6.44785 6.81484C6.83908 6.38734 6.97941 5.76286 6.81128 5.17693C6.4657 4.03161 6.29015 2.8299 6.29015 1.6049C6.2902 0.719948 5.63222 0 4.82349 0H1.46671C0.65798 0 0 0.719948 0 1.60484C0 11.7481 7.54171 20 16.8119 20C17.6206 20 18.2786 19.2801 18.2786 18.3952V14.7325C18.2785 13.8477 17.6206 13.1277 16.8119 13.1277Z" fill="white"/>
</g>
<defs>
<clipPath id="clip0_401_5339">
<rect width="18.2785" height="20" fill="white"/>
</clipPath>
</defs>
</svg>
