<svg width="40" height="40" viewBox="0 0 40 40" fill="none" xmlns="http://www.w3.org/2000/svg">
<path opacity="0.5" d="M6.12784 33.8723L6.12782 33.8723C5.01583 32.7604 4.43178 31.2912 4.13414 29.0773C3.83456 26.8491 3.8335 23.9425 3.8335 20C3.8335 16.0575 3.83456 13.1509 4.13414 10.9227C4.43178 8.70889 5.01583 7.23971 6.12783 6.12771L6.12783 6.12771C7.23983 5.0157 8.70901 4.43166 10.9229 4.13401C13.1511 3.83444 16.0577 3.83337 20.0002 3.83337C23.9426 3.83337 26.8492 3.83444 29.0775 4.13401C31.2913 4.43166 32.7605 5.0157 33.8724 6.1277L33.8724 6.12772C34.9845 7.23971 35.5685 8.7089 35.8662 10.9227C36.1658 13.151 36.1668 16.0575 36.1668 20C36.1668 23.9425 36.1658 26.8491 35.8662 29.0773C35.5685 31.2912 34.9845 32.7604 33.8725 33.8723L33.8724 33.8723C32.7605 34.9844 31.2913 35.5684 29.0775 35.8661C26.8492 36.1656 23.9426 36.1667 20.0002 36.1667C16.0577 36.1667 13.1511 36.1656 10.9229 35.8661C8.70902 35.5684 7.23984 34.9844 6.12784 33.8723Z" fill="white" stroke="#FFC436"/>
<path d="M27.8956 27.5644L21.4944 12.5093C20.9811 11.3022 19.3845 11.2744 18.8295 12.4628L11.9068 27.2852C11.2796 28.6282 12.5955 30.0556 13.8628 29.407L19.2546 26.6481C19.6739 26.4336 20.1629 26.4421 20.5745 26.6711L25.8667 29.6165C27.1106 30.3089 28.4755 28.9283 27.8956 27.5644Z" fill="#3285D6"/>
</svg>
